<svg width="50" height="50" viewBox="0 0 50 50" fill="none" xmlns="http://www.w3.org/2000/svg">
<circle cx="25" cy="25" r="24.5" fill="#FFEED8" stroke="#FFC175"/>
<path d="M29.4193 29.0364C29.3493 28.9671 29.2938 28.8844 29.2562 28.7934C29.2185 28.7023 29.1995 28.6046 29.2001 28.5061L29.2001 20.7703H21.4643C21.2701 20.7635 21.0861 20.6815 20.9512 20.5417C20.8162 20.4019 20.7408 20.2151 20.7408 20.0208C20.7408 19.8265 20.8162 19.6397 20.9512 19.4999C21.0861 19.3601 21.2701 19.2781 21.4643 19.2713L29.9496 19.2713C30.1484 19.2714 30.3389 19.3504 30.4795 19.4909C30.62 19.6315 30.699 19.8221 30.6991 20.0208L30.6991 28.5061C30.699 28.7048 30.62 28.8954 30.4795 29.036C30.3389 29.1765 30.1484 29.2555 29.9496 29.2556C29.8511 29.2562 29.7534 29.2372 29.6623 29.1995C29.5713 29.1619 29.4886 29.1064 29.4193 29.0364Z" fill="#FFC175"/>
<path d="M19.5199 30.4506C19.3816 30.3087 19.3043 30.1184 19.3043 29.9203C19.3043 29.7222 19.3816 29.5319 19.5199 29.39L29.4194 19.4905C29.56 19.3498 29.7508 19.2708 29.9497 19.2708C30.1486 19.2708 30.3394 19.3498 30.48 19.4905C30.6207 19.6311 30.6997 19.8219 30.6997 20.0208C30.6997 20.2197 30.6207 20.4105 30.48 20.5511L20.5805 30.4506C20.4386 30.5889 20.2483 30.6662 20.0502 30.6662C19.8521 30.6662 19.6618 30.5889 19.5199 30.4506Z" fill="#FFC175"/>
</svg>
