<svg width="40" height="40" viewBox="0 0 40 40" fill="none" xmlns="http://www.w3.org/2000/svg">
<circle cx="20" cy="20" r="19.75" fill="#FFEED8" stroke="#FFC175" stroke-width="0.5"/>
<path d="M16.3541 14.6802C16.8653 14.6802 17.3381 14.7202 17.7701 14.8386C18.2029 14.9178 18.5573 15.0762 18.8717 15.2738C19.1869 15.4716 19.4229 15.7487 19.5797 16.105C19.7373 16.461 19.8165 16.897 19.8165 17.3714C19.8165 17.9258 19.6981 18.4002 19.4229 18.7562C19.1869 19.113 18.7933 19.429 18.3213 19.6666C18.9901 19.865 19.5013 20.221 19.8165 20.6954C20.1317 21.1698 20.3277 21.7642 20.3277 22.437C20.3277 22.9914 20.2093 23.4658 20.0125 23.8618C19.8165 24.2578 19.5013 24.6138 19.1469 24.8514C18.7618 25.1058 18.3363 25.293 17.8885 25.405C17.4165 25.5242 16.9445 25.6034 16.4725 25.6034H11.1997V14.6802H16.3541ZM16.0389 19.1122C16.4717 19.1122 16.8261 18.9938 17.1013 18.7962C17.3765 18.5986 17.4949 18.2418 17.4949 17.8066C17.4949 17.569 17.4549 17.3314 17.3765 17.1738C17.2981 17.0162 17.1797 16.8962 17.0229 16.7778C16.8626 16.6877 16.6902 16.6212 16.5109 16.5802C16.3141 16.5402 16.1181 16.5402 15.8813 16.5402H13.5997V19.113L16.0389 19.1122ZM16.1573 23.7826C16.3933 23.7826 16.6293 23.7426 16.8261 23.7034C17.0229 23.6634 17.2197 23.585 17.3765 23.4658C17.5362 23.3493 17.6702 23.2011 17.7701 23.0306C17.8485 22.833 17.9277 22.5954 17.9277 22.3186C17.9277 21.7642 17.7701 21.3682 17.4557 21.0914C17.1405 20.8538 16.7077 20.7354 16.1965 20.7354H13.5997V23.7834L16.1573 23.7826ZM23.7509 23.7426C24.0656 24.0594 24.5376 24.2178 25.1669 24.2178C25.5997 24.2178 25.9933 24.0994 26.3077 23.9018C26.6229 23.6639 26.8197 23.4263 26.8981 23.189H28.8261C28.5109 24.1386 28.0389 24.8114 27.4101 25.2466C26.7797 25.6426 26.0325 25.8802 25.1277 25.8802C24.5489 25.881 23.975 25.7736 23.4357 25.5634C22.9502 25.3823 22.5175 25.0832 22.1765 24.693C21.8104 24.3293 21.5402 23.8804 21.3901 23.3866C21.1933 22.8722 21.1141 22.3186 21.1141 21.685C21.1141 21.0914 21.1933 20.5378 21.3901 20.0226C21.5789 19.5263 21.8592 19.0698 22.2165 18.677C22.5701 18.321 23.0029 18.005 23.4749 17.8066C24.0003 17.5956 24.5615 17.4881 25.1277 17.4898C25.7965 17.4898 26.3869 17.609 26.8981 17.8858C27.4101 18.1626 27.8029 18.4794 28.1173 18.9546C28.4325 19.3898 28.6693 19.9042 28.8261 20.4586C28.9045 21.0122 28.9437 21.5666 28.9045 22.1994H23.1997C23.1997 22.833 23.4357 23.4266 23.7509 23.7434M26.2293 19.5882C25.9541 19.3114 25.5213 19.153 25.0093 19.153C24.7091 19.1485 24.4122 19.2162 24.1437 19.3506C23.9077 19.4698 23.7509 19.6282 23.5933 19.7866C23.4476 19.9389 23.3516 20.132 23.3181 20.3402C23.2781 20.5386 23.2389 20.6962 23.2389 20.8546H26.7797C26.7013 20.261 26.5045 19.8658 26.2293 19.5882ZM22.7669 15.4322H27.1733V16.501H22.7677L22.7669 15.4322Z" fill="#FFC175"/>
</svg>
