<svg width="36" height="36" viewBox="0 0 36 36" fill="none" xmlns="http://www.w3.org/2000/svg">
<g clip-path="url(#clip0_118_453)">
<path d="M18.0002 0.719971C8.45662 0.719971 0.720215 8.45637 0.720215 18C0.720215 27.5436 8.45662 35.28 18.0002 35.28C27.5438 35.28 35.2802 27.5436 35.2802 18C35.2802 8.45637 27.5438 0.719971 18.0002 0.719971ZM13.7702 25.1622H10.271V13.9014H13.7702V25.1622ZM11.999 12.519C10.8938 12.519 10.1792 11.736 10.1792 10.7676C10.1792 9.77937 10.9154 9.01977 12.044 9.01977C13.1726 9.01977 13.8638 9.77937 13.8854 10.7676C13.8854 11.736 13.1726 12.519 11.999 12.519ZM26.5502 25.1622H23.051V18.9216C23.051 17.469 22.5434 16.4826 21.278 16.4826C20.3114 16.4826 19.7372 17.1504 19.4834 17.793C19.3898 18.0216 19.3664 18.3456 19.3664 18.6678V25.1604H15.8654V17.4924C15.8654 16.0866 15.8204 14.9112 15.7736 13.8996H18.8138L18.974 15.4638H19.0442C19.505 14.7294 20.6336 13.6458 22.5218 13.6458C24.824 13.6458 26.5502 15.1884 26.5502 18.504V25.1622Z" fill="#FFC175"/>
</g>
<defs>
<clipPath id="clip0_118_453">
<rect width="36" height="36" fill="white"/>
</clipPath>
</defs>
</svg>
