<svg width="42" height="42" viewBox="0 0 42 42" fill="none" xmlns="http://www.w3.org/2000/svg">
<path d="M25.8301 19.5826C25.5864 19.5816 25.3452 19.6315 25.1219 19.7292C24.8986 19.8268 24.6982 19.97 24.5334 20.1495C24.3687 20.3291 24.2433 20.5411 24.1652 20.772C24.0871 21.0028 24.0581 21.2474 24.0801 21.4901H27.6851C27.7084 21.2383 27.6768 20.9844 27.5926 20.746C27.5083 20.5076 27.3734 20.2902 27.1971 20.1089C27.0208 19.9277 26.8073 19.7867 26.5713 19.6959C26.3353 19.605 26.0824 19.5664 25.8301 19.5826ZM16.6076 21.5251H14.4551V24.9201H16.2051C17.9551 24.9201 18.7251 24.3426 18.7251 23.1701C18.7251 21.9976 17.9201 21.5251 16.6076 21.5251ZM18.1301 18.4101C18.1301 17.4826 17.5176 16.9226 16.4676 16.9226H14.4551V19.9676H15.9426C17.5001 19.9676 18.1301 19.4076 18.1301 18.4101Z" fill="#FFC175"/>
<path d="M21 3.5C17.5388 3.5 14.1554 4.52636 11.2775 6.44928C8.39967 8.37221 6.15665 11.1053 4.83212 14.303C3.50758 17.5007 3.16102 21.0194 3.83627 24.4141C4.51151 27.8088 6.17822 30.927 8.62564 33.3744C11.0731 35.8218 14.1913 37.4885 17.5859 38.1637C20.9806 38.839 24.4993 38.4924 27.697 37.1679C30.8947 35.8434 33.6278 33.6003 35.5507 30.7225C37.4736 27.8446 38.5 24.4612 38.5 21C38.5 18.7019 38.0474 16.4262 37.1679 14.303C36.2884 12.1798 34.9994 10.2507 33.3744 8.62563C31.7493 7.00061 29.8202 5.71157 27.697 4.83211C25.5738 3.95265 23.2981 3.5 21 3.5ZM16.975 26.6H12.25V15.225H16.975C19.0225 15.225 20.37 16.2925 20.37 18.025C20.3942 18.607 20.2101 19.1786 19.8509 19.6373C19.4917 20.0959 18.9809 20.4115 18.41 20.5275C18.7718 20.5359 19.1281 20.618 19.457 20.7688C19.786 20.9197 20.0807 21.136 20.3231 21.4047C20.5656 21.6733 20.7507 21.9886 20.867 22.3313C20.9834 22.674 21.0287 23.0368 21 23.3975C21 25.4275 19.25 26.6 16.975 26.6ZM23.1875 16.1H28.4375V16.975H23.1875V16.1ZM29.75 22.8375H23.975V23.0825C23.9449 23.3484 23.9722 23.6177 24.0549 23.8722C24.1377 24.1267 24.2741 24.3605 24.4548 24.5579C24.6356 24.7552 24.8566 24.9115 25.1028 25.0162C25.3491 25.121 25.615 25.1717 25.8825 25.165C26.2581 25.2234 26.6422 25.1439 26.9638 24.9413C27.2855 24.7386 27.523 24.4265 27.6325 24.0625H29.75C29.5615 24.9025 29.0699 25.6436 28.3693 26.144C27.6687 26.6444 26.8083 26.8691 25.9525 26.775C25.4056 26.8302 24.8531 26.7649 24.3341 26.5837C23.8151 26.4025 23.3421 26.1097 22.9484 25.7261C22.5547 25.3424 22.2499 24.8771 22.0554 24.3629C21.8609 23.8487 21.7814 23.2982 21.8225 22.75V21.98C21.7853 21.4488 21.8635 20.9159 22.0516 20.4177C22.2397 19.9196 22.5334 19.468 22.9124 19.094C23.2914 18.72 23.7468 18.4324 24.2474 18.2509C24.7479 18.0694 25.2819 17.9983 25.8125 18.0425C26.3414 18.0086 26.8714 18.0884 27.3669 18.2765C27.8623 18.4647 28.3117 18.7568 28.6848 19.1332C29.0579 19.5096 29.346 19.9615 29.5297 20.4586C29.7135 20.9557 29.7886 21.4864 29.75 22.015V22.8375Z" fill="#FFC175"/>
</svg>
