<svg width="60" height="60" viewBox="0 0 60 60" fill="none" xmlns="http://www.w3.org/2000/svg">
<path d="M45.9375 0H14.0625C6.296 0 0 6.296 0 14.0625V45.9375C0 53.704 6.296 60 14.0625 60H45.9375C53.704 60 60 53.704 60 45.9375V14.0625C60 6.296 53.704 0 45.9375 0Z" fill="#242938"/>
<mask id="mask0_111_6" style="mask-type:luminance" maskUnits="userSpaceOnUse" x="14" y="6" width="32" height="48">
<path d="M14.2969 6.5625H45.5531V53.4375H14.2969V6.5625Z" fill="white"/>
</mask>
<g mask="url(#mask0_111_6)">
<path d="M22.1125 53.4376C26.425 53.4376 29.9249 49.9377 29.9249 45.6252V37.8125H22.1125C17.8 37.8125 14.2998 41.3127 14.2998 45.6252C14.2998 49.9377 17.8 53.4376 22.1125 53.4376Z" fill="#0ACF83"/>
<path d="M14.2998 29.9999C14.2998 25.6874 17.8 22.1875 22.1125 22.1875H29.9249V37.8123H22.1125C17.8 37.8123 14.2998 34.3124 14.2998 29.9999Z" fill="#A259FF"/>
<path d="M14.2998 14.3749C14.2998 10.0624 17.8 6.5625 22.1125 6.5625H29.9249V22.1876H22.1125C17.8 22.1876 14.2998 18.6874 14.2998 14.3749Z" fill="#F24E1E"/>
<path d="M29.9248 6.5625H37.7372C42.0497 6.5625 45.5499 10.0624 45.5499 14.3749C45.5499 18.6874 42.0497 22.1876 37.7372 22.1876H29.9248V6.5625Z" fill="#FF7262"/>
<path d="M45.5499 29.9999C45.5499 34.3124 42.0497 37.8123 37.7372 37.8123C33.4247 37.8123 29.9248 34.3124 29.9248 29.9999C29.9248 25.6874 33.4247 22.1875 37.7372 22.1875C42.0497 22.1875 45.5499 25.6874 45.5499 29.9999Z" fill="#1ABCFE"/>
</g>
</svg>
