<svg width="40" height="40" viewBox="0 0 40 40" fill="none" xmlns="http://www.w3.org/2000/svg">
<circle cx="20" cy="20" r="19.75" fill="#FFEED8" stroke="#FFC175" stroke-width="0.5"/>
<path d="M22.4001 28.0002V24.8002C22.5114 23.7981 22.224 22.7923 21.6001 22.0002C24.0001 22.0002 26.4001 20.4002 26.4001 17.6002C26.4641 16.6002 26.1841 15.6162 25.6001 14.8002C25.8241 13.8802 25.8241 12.9202 25.6001 12.0002C25.6001 12.0002 24.8001 12.0002 23.2001 13.2002C21.0881 12.8002 18.9121 12.8002 16.8001 13.2002C15.2001 12.0002 14.4001 12.0002 14.4001 12.0002C14.1601 12.9202 14.1601 13.8802 14.4001 14.8002C13.8174 15.6129 13.5347 16.6025 13.6001 17.6002C13.6001 20.4002 16.0001 22.0002 18.4001 22.0002C18.0881 22.3922 17.8561 22.8402 17.7201 23.3202C17.5841 23.8002 17.5441 24.3042 17.6001 24.8002V28.0002" stroke="#FFC175" stroke-width="1.5" stroke-linecap="round" stroke-linejoin="round"/>
<path d="M17.6 24.8002C13.992 26.4002 13.6 23.2002 12 23.2002" stroke="#FFC175" stroke-width="1.5" stroke-linecap="round" stroke-linejoin="round"/>
</svg>
