<svg width="50" height="50" viewBox="0 0 50 50" fill="none" xmlns="http://www.w3.org/2000/svg">
<circle cx="25" cy="25" r="24.5" fill="#FFEED8" stroke="#FFC175"/>
<path d="M34.75 19.75V30.25C34.75 30.6478 34.592 31.0294 34.3107 31.3107C34.0294 31.592 33.6478 31.75 33.25 31.75H16.75C16.3522 31.75 15.9706 31.592 15.6893 31.3107C15.408 31.0294 15.25 30.6478 15.25 30.25V19.75M34.75 19.75C34.75 19.3522 34.592 18.9706 34.3107 18.6893C34.0294 18.408 33.6478 18.25 33.25 18.25H16.75C16.3522 18.25 15.9706 18.408 15.6893 18.6893C15.408 18.9706 15.25 19.3522 15.25 19.75M34.75 19.75L25.8535 25.909C25.6027 26.0825 25.305 26.1755 25 26.1755C24.695 26.1755 24.3973 26.0825 24.1465 25.909L15.25 19.75" stroke="#FFC175" stroke-linecap="round" stroke-linejoin="round"/>
</svg>
