<svg width="50" height="50" viewBox="0 0 50 50" fill="none" xmlns="http://www.w3.org/2000/svg">
<circle cx="25" cy="25" r="24.5" fill="#FFEED8" stroke="#FFC175"/>
<path d="M31.75 22.75C31.75 20.9598 31.0388 19.2429 29.773 17.977C28.5071 16.7112 26.7902 16 25 16C23.2098 16 21.4929 16.7112 20.227 17.977C18.9612 19.2429 18.25 20.9598 18.25 22.75C18.25 25.519 20.4655 29.128 25 33.451C29.5345 29.128 31.75 25.519 31.75 22.75ZM25 35.5C19.4995 30.5005 16.75 26.2495 16.75 22.75C16.75 20.562 17.6192 18.4635 19.1664 16.9164C20.7135 15.3692 22.812 14.5 25 14.5C27.188 14.5 29.2865 15.3692 30.8336 16.9164C32.3808 18.4635 33.25 20.562 33.25 22.75C33.25 26.2495 30.5005 30.5005 25 35.5Z" fill="#FFC175"/>
<path d="M25 25C25.5967 25 26.169 24.7629 26.591 24.341C27.0129 23.919 27.25 23.3467 27.25 22.75C27.25 22.1533 27.0129 21.581 26.591 21.159C26.169 20.7371 25.5967 20.5 25 20.5C24.4033 20.5 23.831 20.7371 23.409 21.159C22.9871 21.581 22.75 22.1533 22.75 22.75C22.75 23.3467 22.9871 23.919 23.409 24.341C23.831 24.7629 24.4033 25 25 25ZM25 26.5C24.0054 26.5 23.0516 26.1049 22.3483 25.4017C21.6451 24.6984 21.25 23.7446 21.25 22.75C21.25 21.7554 21.6451 20.8016 22.3483 20.0983C23.0516 19.3951 24.0054 19 25 19C25.9946 19 26.9484 19.3951 27.6517 20.0983C28.3549 20.8016 28.75 21.7554 28.75 22.75C28.75 23.7446 28.3549 24.6984 27.6517 25.4017C26.9484 26.1049 25.9946 26.5 25 26.5Z" fill="#FFC175"/>
</svg>
