<svg width="50" height="50" viewBox="0 0 50 50" fill="none" xmlns="http://www.w3.org/2000/svg">
<circle cx="25" cy="25" r="24.5" fill="#FFEED8" stroke="#FFC175"/>
<path d="M14.8601 23.131L26.8691 35.14C26.975 35.2458 27.1102 35.3175 27.2572 35.3459C27.4043 35.3742 27.5564 35.3579 27.6941 35.299L33.6341 32.755C33.7466 32.7066 33.8456 32.6314 33.9224 32.5359C33.9992 32.4404 34.0514 32.3276 34.0744 32.2073C34.0975 32.087 34.0908 31.9628 34.0548 31.8457C34.0188 31.7286 33.9547 31.6221 33.8681 31.5355L30.2621 27.928C30.1509 27.8167 30.0074 27.7431 29.8521 27.7178C29.6968 27.6925 29.5374 27.7167 29.3966 27.787L27.7586 28.606L21.3926 22.24L22.2131 20.602C22.2835 20.4613 22.308 20.3021 22.283 20.1467C22.2579 19.9914 22.1847 19.8479 22.0736 19.7365L18.4646 16.1305C18.3779 16.0439 18.2713 15.9799 18.1541 15.944C18.0369 15.9081 17.9127 15.9015 17.7924 15.9248C17.672 15.948 17.5592 16.0004 17.4638 16.0773C17.3684 16.1542 17.2933 16.2533 17.2451 16.366L14.6996 22.306C14.6407 22.4437 14.6244 22.5958 14.6527 22.7429C14.6811 22.8899 14.7527 23.0251 14.8586 23.131H14.8601ZM16.2776 22.429L18.1886 17.974L20.6306 20.4175L20.0531 21.571L19.5701 22.537L20.3336 23.302L26.6981 29.6665L27.4631 30.4315L28.4291 29.947L29.5841 29.371L32.0261 31.8115L27.5711 33.721L16.2776 22.429ZM25.0001 20.5V19C26.5914 19 28.1175 19.6321 29.2427 20.7574C30.3679 21.8826 31.0001 23.4087 31.0001 25H29.5001C29.5001 23.8065 29.026 22.6619 28.1821 21.818C27.3381 20.9741 26.1936 20.5 25.0001 20.5ZM25.0001 16V14.5C27.7849 14.5 30.4556 15.6062 32.4247 17.5754C34.3938 19.5445 35.5001 22.2152 35.5001 25H34.0001C34.0001 22.6131 33.0519 20.3239 31.364 18.636C29.6762 16.9482 27.387 16 25.0001 16Z" fill="#FFC175"/>
</svg>
