<svg width="40" height="40" viewBox="0 0 40 40" fill="none" xmlns="http://www.w3.org/2000/svg">
<circle cx="20" cy="20" r="19.75" fill="#FFEED8" stroke="#FFC175" stroke-width="0.5"/>
<path d="M20 15.8999C19.1891 15.8999 18.3964 16.1404 17.7222 16.5909C17.0479 17.0414 16.5224 17.6817 16.2121 18.4309C15.9018 19.1801 15.8206 20.0044 15.9788 20.7998C16.137 21.5951 16.5275 22.3256 17.1009 22.899C17.6743 23.4724 18.4048 23.8629 19.2001 24.0211C19.9955 24.1793 20.8198 24.0981 21.569 23.7878C22.3182 23.4775 22.9585 22.952 23.409 22.2777C23.8596 21.6035 24.1 20.8108 24.1 19.9999C24.1013 19.4611 23.9962 18.9274 23.7906 18.4293C23.585 17.9313 23.2831 17.4788 22.9021 17.0978C22.5211 16.7168 22.0686 16.4149 21.5706 16.2093C21.0725 16.0037 20.5388 15.8986 20 15.8999ZM20 22.6699C19.4719 22.6699 18.9557 22.5133 18.5166 22.2199C18.0776 21.9265 17.7353 21.5095 17.5333 21.0217C17.3312 20.5338 17.2783 19.9969 17.3813 19.479C17.4843 18.9611 17.7386 18.4853 18.112 18.1119C18.4854 17.7385 18.9612 17.4842 19.4791 17.3812C19.9971 17.2782 20.5339 17.331 21.0218 17.5331C21.5097 17.7352 21.9267 18.0774 22.22 18.5165C22.5134 18.9556 22.67 19.4718 22.67 19.9999C22.67 20.708 22.3887 21.3871 21.888 21.8879C21.3873 22.3886 20.7081 22.6699 20 22.6699ZM25.23 15.7299C25.23 15.9277 25.1714 16.121 25.0615 16.2855C24.9516 16.4499 24.7954 16.5781 24.6127 16.6538C24.43 16.7295 24.2289 16.7493 24.0349 16.7107C23.8409 16.6721 23.6628 16.5769 23.5229 16.437C23.3831 16.2971 23.2878 16.119 23.2492 15.925C23.2106 15.731 23.2304 15.5299 23.3061 15.3472C23.3818 15.1645 23.51 15.0083 23.6744 14.8984C23.8389 14.7885 24.0322 14.7299 24.23 14.7299C24.4952 14.7299 24.7496 14.8352 24.9371 15.0228C25.1247 15.2103 25.23 15.4647 25.23 15.7299ZM27.94 16.7299C27.9702 15.4865 27.5063 14.2819 26.65 13.3799C26.2058 12.9505 25.6813 12.6129 25.1064 12.3864C24.5316 12.1599 23.9178 12.0489 23.3 12.0599C22 11.9999 18 11.9999 16.7 12.0599C15.4572 12.033 14.2538 12.4964 13.35 13.3499C12.4937 14.2519 12.0298 15.4565 12.06 16.6999C12 17.9999 12 21.9999 12.06 23.2999C12.0298 24.5433 12.4937 25.7479 13.35 26.6499C14.2538 27.5034 15.4572 27.9668 16.7 27.9399C18.02 28.0199 21.98 28.0199 23.3 27.9399C24.5434 27.9701 25.748 27.5062 26.65 26.6499C27.5063 25.7479 27.9702 24.5433 27.94 23.2999C28 21.9999 28 17.9999 27.94 16.6999V16.7299ZM26.24 24.7299C26.1042 25.0738 25.8993 25.3862 25.6378 25.6477C25.3763 25.9091 25.064 26.1141 24.72 26.2499C23.1676 26.5637 21.5806 26.6713 20 26.5699C18.4228 26.6705 16.8392 26.5629 15.29 26.2499C14.9461 26.1141 14.6337 25.9091 14.3722 25.6477C14.1108 25.3862 13.9058 25.0738 13.77 24.7299C13.35 23.6699 13.44 21.1699 13.44 20.0099C13.44 18.8499 13.35 16.3399 13.77 15.2899C13.902 14.9426 14.1055 14.6269 14.3673 14.3633C14.6292 14.0997 14.9436 13.8941 15.29 13.7599C16.8392 13.4469 18.4228 13.3393 20 13.4399C21.5806 13.3384 23.1676 13.446 24.72 13.7599C25.064 13.8957 25.3763 14.1006 25.6378 14.3621C25.8993 14.6236 26.1042 14.936 26.24 15.2799C26.66 16.3399 26.56 18.8399 26.56 19.9999C26.56 21.1599 26.66 23.6699 26.24 24.7199V24.7299Z" fill="#FFC175"/>
</svg>
