<svg width="40" height="40" viewBox="0 0 40 40" fill="none" xmlns="http://www.w3.org/2000/svg">
<circle cx="20" cy="20" r="19.75" fill="#FFEED8" stroke="#FFC175" stroke-width="0.5"/>
<path fill-rule="evenodd" clip-rule="evenodd" d="M20.4081 17.437V18.7946C20.6924 18.3616 21.0843 18.0098 21.5453 17.7736C22.0064 17.5375 22.5209 17.4251 23.0385 17.4474C25.8025 17.4474 26.4001 19.1754 26.4001 21.4234V26.0002H23.8401V21.9426C23.8401 20.9746 23.6449 19.7298 22.1377 19.7298C20.6761 19.7298 20.4265 20.7834 20.4265 21.8706V26.0002H17.8745V17.437H20.4081ZM16.1601 15.285C16.1598 15.5386 16.0846 15.7865 15.944 15.9976C15.8034 16.2086 15.6036 16.3735 15.3697 16.4714C15.1359 16.5686 14.8784 16.5941 14.6301 16.5445C14.3818 16.4949 14.1539 16.3726 13.9753 16.193C13.7964 16.0134 13.6746 15.7849 13.6252 15.5362C13.5758 15.2875 13.6011 15.0298 13.6978 14.7955C13.7945 14.5611 13.9583 14.3606 14.1687 14.2191C14.3791 14.0776 14.6266 14.0014 14.8801 14.0002C15.0486 14.0002 15.2154 14.0335 15.371 14.0981C15.5266 14.1628 15.668 14.2575 15.7869 14.3768C15.9058 14.4962 16 14.6379 16.064 14.7937C16.1281 14.9496 16.1607 15.1165 16.1601 15.285Z" fill="#FFC175"/>
<path d="M16.1601 17.4475H13.6001V26.0003H16.1601V17.4475Z" fill="#FFC175"/>
</svg>
