<svg width="60" height="60" viewBox="0 0 60 60" fill="none" xmlns="http://www.w3.org/2000/svg">
<g clip-path="url(#clip0_111_18)">
<path d="M50.0391 0H9.96094C4.45966 0 0 4.5667 0 10.2V49.704C0 55.3373 4.45966 59.904 9.96094 59.904H50.0391C55.5403 59.904 60 55.3373 60 49.704V10.2C60 4.5667 55.5403 0 50.0391 0Z" fill="#470137"/>
<path d="M31.5417 15.7536L24.055 28.4071L32.0648 41.8435C32.1163 41.9376 32.1306 42.048 32.1051 42.1526C32.0927 42.1973 32.066 42.2083 32.0249 42.21L31.9795 42.2093L31.9242 42.2078C31.8942 42.2078 31.8606 42.2093 31.8234 42.2155H26.0484L25.9349 42.2136C25.6237 42.2052 25.3994 42.1596 25.2628 41.9258C24.7284 40.8599 24.1917 39.7951 23.6526 38.7317C23.1704 37.7831 22.675 36.8417 22.1667 35.9076L21.9421 35.4962C21.3341 34.3896 20.737 33.2768 20.151 32.1578H20.1107C19.5696 33.2651 19.0127 34.3643 18.4403 35.4549C17.863 36.5541 17.2927 37.6464 16.7296 38.7317C16.1661 39.8176 15.5892 40.8961 14.999 41.9671C14.9041 42.1855 14.7463 42.2311 14.5267 42.2385L14.4353 42.24H8.92119L8.89728 42.2407L8.81853 42.2479C8.7747 42.2505 8.74845 42.2409 8.74002 42.1733C8.725 42.0728 8.74652 41.9701 8.80048 41.8848L16.5686 28.8192L9.00158 15.7128C8.92127 15.6033 8.90783 15.5141 8.96127 15.4449C8.99097 15.4097 9.02826 15.3821 9.0702 15.3642C9.11214 15.3463 9.15757 15.3386 9.20291 15.3417H14.8781C15.0018 15.3349 15.1255 15.356 15.2404 15.4037C15.3365 15.4596 15.4192 15.5371 15.4818 15.6305C15.9648 16.7297 16.5015 17.8287 17.092 18.9276C17.6778 20.0194 18.2749 21.1048 18.8831 22.1837C19.482 23.2458 20.0392 24.3321 20.5535 25.4397H20.5938C21.1208 24.3323 21.6642 23.2331 22.2238 22.1426C22.7735 21.0709 23.337 19.9924 23.9142 18.9069C24.4839 17.8356 25.0407 16.7571 25.5845 15.6717C25.6155 15.57 25.6708 15.4778 25.7456 15.4037C25.845 15.3521 25.9567 15.3306 26.0676 15.3417H31.3403C31.3888 15.3294 31.4399 15.3334 31.4859 15.3534C31.5319 15.3733 31.5704 15.408 31.5955 15.4522C31.6206 15.4964 31.631 15.5478 31.6251 15.5986C31.6193 15.6494 31.5975 15.6969 31.563 15.7339L31.5417 15.7536ZM43.3706 42.7471L43.0931 42.7502C41.2404 42.7792 39.4047 42.385 37.7195 41.5963C36.1497 40.8523 34.8374 39.6378 33.9562 38.1134C33.0676 36.6022 32.6117 34.7194 32.5886 32.465L32.5877 32.2814C32.5726 30.3898 33.0447 28.5274 33.9564 26.8821C34.8689 25.2537 36.1991 23.912 37.803 23.0023L37.941 22.9255C39.6848 21.9362 41.7912 21.4416 44.2602 21.4416L44.3681 21.4428L44.4913 21.4469L44.6296 21.4531L44.7834 21.4622L45.0417 21.4809L45.3342 21.5049L45.5481 21.5241V13.4045C45.5481 13.2123 45.6286 13.1161 45.7895 13.116H50.8612C50.894 13.1112 50.9274 13.1142 50.9589 13.125C50.9903 13.1357 51.0189 13.1537 51.0423 13.1777C51.0657 13.2017 51.0834 13.231 51.0938 13.2632C51.1043 13.2954 51.1073 13.3296 51.1026 13.3632V37.722C51.1026 38.1311 51.1181 38.5714 51.149 39.0429L51.224 40.1121L51.2638 40.7306C51.2688 40.8163 51.2484 40.9015 51.2053 40.975C51.1622 41.0486 51.0983 41.1071 51.0222 41.1429C49.7138 41.7016 48.3511 42.116 46.957 42.3792C45.7735 42.603 44.5739 42.7261 43.3706 42.7471ZM45.5481 37.6394V26.3875C45.3306 26.3271 45.1085 26.2858 44.8842 26.2639C44.61 26.2355 44.3345 26.2218 44.0589 26.2226C43.0822 26.2125 42.1169 26.4385 41.2415 26.8821C40.3889 27.3165 39.6608 27.9697 39.1284 28.7781C38.597 29.574 38.3222 30.6132 38.3041 31.8957L38.3031 32.0342C38.2836 32.9326 38.4269 33.8269 38.7257 34.6718C38.9691 35.3527 39.3537 35.9715 39.8531 36.4855C40.3309 36.9584 40.9096 37.3111 41.5434 37.5158C42.2128 37.7377 42.9125 37.8491 43.6162 37.8458C43.9917 37.8458 44.3405 37.832 44.6627 37.8043C44.9197 37.7845 45.1745 37.7411 45.4239 37.6747L45.5481 37.6394Z" fill="#FF61F6"/>
</g>
<defs>
<clipPath id="clip0_111_18">
<rect width="60" height="60" fill="white"/>
</clipPath>
</defs>
</svg>
