<svg width="80" height="80" viewBox="0 0 80 80" fill="none" xmlns="http://www.w3.org/2000/svg">
<circle cx="40" cy="40" r="39.5" fill="#FFEED8" stroke="#FFC175"/>
<path d="M26.2188 53.6199L36.2952 43.5436M48.984 39.0628L45.9678 48.1115C45.9196 48.2566 45.8372 48.3879 45.7275 48.4943C45.6178 48.6007 45.484 48.679 45.3376 48.7227L26.8474 54.2184C26.6808 54.2679 26.5039 54.2707 26.3358 54.2266C26.1677 54.1825 26.015 54.0932 25.8941 53.9683C25.7733 53.8434 25.6891 53.6877 25.6506 53.5183C25.6121 53.3488 25.6208 53.172 25.6758 53.0072L31.6798 34.9984C31.7228 34.8691 31.7931 34.7505 31.886 34.6508C31.9789 34.5511 32.0922 34.4725 32.2181 34.4204L40.7475 30.9086C40.9209 30.837 41.1116 30.8183 41.2956 30.855C41.4796 30.8916 41.6487 30.9819 41.7814 31.1144L48.7544 38.0906C48.8792 38.2154 48.9668 38.3724 49.0073 38.5441C49.0479 38.7158 49.0398 38.8954 48.984 39.0628Z" stroke="#FFC175" stroke-width="1.5" stroke-linecap="round" stroke-linejoin="round"/>
<path d="M49.1709 38.5054L53.6485 34.0262C54.2422 33.4324 54.5757 32.627 54.5757 31.7874C54.5757 30.9477 54.2422 30.1424 53.6485 29.5485L50.2919 26.1887C49.9978 25.8945 49.6486 25.6611 49.2644 25.5019C48.8801 25.3427 48.4682 25.2607 48.0522 25.2607C47.6363 25.2607 47.2244 25.3427 46.8401 25.5019C46.4558 25.6611 46.1067 25.8945 45.8126 26.1887L41.3349 30.6679M39.6534 40.1838C39.4328 39.9633 39.171 39.7884 38.8828 39.6691C38.5946 39.5498 38.2857 39.4884 37.9738 39.4885C37.6618 39.4886 37.353 39.5501 37.0649 39.6695C36.7767 39.7889 36.5149 39.964 36.2944 40.1846C36.0739 40.4052 35.899 40.6671 35.7797 40.9553C35.6604 41.2435 35.599 41.5523 35.5991 41.8643C35.5992 42.1762 35.6607 42.485 35.7801 42.7732C35.8996 43.0613 36.0746 43.3231 36.2952 43.5436C36.7407 43.9889 37.3449 44.239 37.9749 44.2389C38.6048 44.2387 39.2089 43.9884 39.6542 43.5428C40.0996 43.0973 40.3497 42.4931 40.3495 41.8631C40.3494 41.2332 40.099 40.6291 39.6534 40.1838Z" stroke="#FFC175" stroke-width="1.5" stroke-linecap="round" stroke-linejoin="round"/>
</svg>
