<svg width="60" height="60" viewBox="0 0 60 60" fill="none" xmlns="http://www.w3.org/2000/svg">
<g clip-path="url(#clip0_111_22)">
<path d="M45.9375 0H14.0625C6.296 0 0 6.296 0 14.0625V45.9375C0 53.704 6.296 60 14.0625 60H45.9375C53.704 60 60 53.704 60 45.9375V14.0625C60 6.296 53.704 0 45.9375 0Z" fill="#330000"/>
<path d="M29.0001 35.7031H19.7001L17.8001 41.5782C17.7501 41.8032 17.5502 41.9532 17.3252 41.9281H12.6251C12.3501 41.9281 12.2751 41.7781 12.3501 41.4781L20.4002 18.3031C20.4752 18.0533 20.5502 17.7781 20.6501 17.4781C20.7501 16.9531 20.8001 16.4033 20.8001 15.8532C20.7752 15.7283 20.8751 15.6031 21.0002 15.5783H27.4751C27.6752 15.5783 27.7751 15.6533 27.8001 15.7782L36.9251 41.5283C37.0001 41.8032 36.9251 41.9281 36.6752 41.9281H31.4501C31.2752 41.9532 31.1001 41.8283 31.0502 41.6532L29.0001 35.7031ZM21.1502 30.6282H27.5001C27.3501 30.1032 27.1502 29.4781 26.9252 28.8282C26.7002 28.1532 26.4752 27.4283 26.2502 26.6783C26.0001 25.9032 25.7751 25.1532 25.5251 24.3781C25.2752 23.6033 25.0502 22.8781 24.8501 22.1532C24.6501 21.4534 24.4751 20.8032 24.3002 20.2032H24.2501C24.0251 21.2783 23.7501 22.3534 23.4002 23.4282C23.0252 24.6282 22.6502 25.8781 22.2501 27.1283C21.9273 28.3083 21.5604 29.4757 21.1502 30.6282ZM42.5001 19.9531C41.6751 19.9782 40.8752 19.6531 40.2752 19.0782C39.7003 18.4531 39.4003 17.6281 39.4251 16.7783C39.4003 15.9282 39.7251 15.1283 40.3251 14.5531C40.9251 13.978 41.7253 13.6782 42.5503 13.6782C43.5253 13.6782 44.2753 13.9782 44.8251 14.5531C45.3793 15.1592 45.6752 15.9575 45.6501 16.7783C45.6752 17.6281 45.3752 18.4531 44.7752 19.0782C44.2003 19.6782 43.3502 20.0033 42.5001 19.9531ZM39.7003 41.6532V22.4033C39.7003 22.1532 39.8001 22.0531 40.0251 22.0531H44.9751C45.2001 22.0531 45.3002 22.1783 45.3002 22.4033V41.6532C45.3002 41.9281 45.2001 42.0533 44.9751 42.0533H40.0753C39.8252 42.0533 39.7003 41.9033 39.7003 41.6532Z" fill="#FF9A00"/>
</g>
<defs>
<clipPath id="clip0_111_22">
<rect width="60" height="60" fill="white"/>
</clipPath>
</defs>
</svg>
