<svg width="30" height="30" viewBox="0 0 30 30" fill="none" xmlns="http://www.w3.org/2000/svg">
<g clip-path="url(#clip0_103_363)">
<path d="M1.875 15C1.875 18.481 3.25781 21.8194 5.71922 24.2808C8.18064 26.7422 11.519 28.125 15 28.125C18.481 28.125 21.8194 26.7422 24.2808 24.2808C26.7422 21.8194 28.125 18.481 28.125 15C28.125 11.519 26.7422 8.18064 24.2808 5.71922C21.8194 3.25781 18.481 1.875 15 1.875C11.519 1.875 8.18064 3.25781 5.71922 5.71922C3.25781 8.18064 1.875 11.519 1.875 15Z" stroke="#EFA449" stroke-width="2" stroke-linejoin="round"/>
<path d="M9.375 15C9.375 11.519 9.96763 8.18064 11.0225 5.71922C12.0774 3.25781 13.5082 1.875 15 1.875C16.4918 1.875 17.9226 3.25781 18.9775 5.71922C20.0324 8.18064 20.625 11.519 20.625 15C20.625 18.481 20.0324 21.8194 18.9775 24.2808C17.9226 26.7422 16.4918 28.125 15 28.125C13.5082 28.125 12.0774 26.7422 11.0225 24.2808C9.96763 21.8194 9.375 18.481 9.375 15Z" stroke="#EFA449" stroke-width="2" stroke-linejoin="round"/>
<path d="M2.8125 19.375H27.1875M2.8125 10.625H27.1875" stroke="#EFA449" stroke-width="2" stroke-linecap="round"/>
</g>
<defs>
<clipPath id="clip0_103_363">
<rect width="30" height="30" fill="white"/>
</clipPath>
</defs>
</svg>
